<svg xmlns="http://www.w3.org/2000/svg" version="1.1" xmlns:xlink="http://www.w3.org/1999/xlink" xmlns:svgjs="http://svgjs.dev/svgjs" width="2000" height="2822" viewBox="0 0 2000 2822"><g transform="matrix(1,0,0,1,-1.0022918258216578,1.1425101214574624)"><svg viewBox="0 0 175 247" data-background-color="#000000" preserveAspectRatio="xMidYMid meet" height="2822" width="2000" xmlns="http://www.w3.org/2000/svg" xmlns:xlink="http://www.w3.org/1999/xlink"><g id="tight-bounds" transform="matrix(1,0,0,1,0.08770053475939221,-0.09999999999999432)"><svg viewBox="0 0 174.82459893048124 247.2" height="247.2" width="174.82459893048124"><g><svg viewBox="0 0 174.82459893048127 247.20000000000002" height="247.2" width="174.82459893048124"><g><svg viewBox="0 0 174.82459893048127 247.20000000000002" height="247.20000000000002" width="174.82459893048127"><g id="textblocktransform"><svg viewBox="0 0 174.82459893048127 247.20000000000002" height="247.20000000000002" width="174.82459893048127" id="textblock"><g><svg viewBox="0 0 174.82459893048127 247.20000000000002" height="247.20000000000002" width="174.82459893048127"><g transform="matrix(1,0,0,1,0,0)"><svg width="174.82459893048127" viewBox="1.98 -36.04 25.83 36.53" height="247.20000000000002" data-palette-color="url(#0cab18a5-c43b-4a80-a096-ce1aad06e2f7)"></svg></g></svg></g></svg></g></svg></g></svg></g><defs></defs><mask id="e06317c9-54db-4570-8662-48877b9ef678"><g id="SvgjsG1108"><svg viewBox="0 0 174.82459893048124 247.2" height="247.2" width="174.82459893048124"><g><svg viewBox="0 0 174.82459893048127 247.20000000000002" height="247.2" width="174.82459893048124"><g><svg viewBox="0 0 174.82459893048127 247.20000000000002" height="247.20000000000002" width="174.82459893048127"><g id="SvgjsG1107"><svg viewBox="0 0 174.82459893048127 247.20000000000002" height="247.20000000000002" width="174.82459893048127" id="SvgjsSvg1106"><g><svg viewBox="0 0 174.82459893048127 247.20000000000002" height="247.20000000000002" width="174.82459893048127"><g transform="matrix(1,0,0,1,0,0)"><svg width="174.82459893048127" viewBox="1.98 -36.04 25.83 36.53" height="247.20000000000002" data-palette-color="url(#0cab18a5-c43b-4a80-a096-ce1aad06e2f7)"><path d="M23.05-8.98L23.05-8.98Q23.05-10.67 22.34-11.84 21.63-13.01 19.8-13.96 17.97-14.92 14.6-15.89L14.6-15.89Q11.96-16.65 9.85-17.61 7.74-18.58 6.23-19.82 4.71-21.07 3.91-22.68 3.1-24.29 3.1-26.37L3.1-26.37Q3.1-29.15 4.6-31.34 6.1-33.52 8.81-34.78 11.52-36.04 15.16-36.04L15.16-36.04Q19.19-36.04 22-34.51 24.8-32.98 26.27-30.53 27.73-28.08 27.73-25.29L27.73-25.29 22.97-25.29Q22.97-27.29 22.13-28.86 21.29-30.42 19.56-31.31 17.82-32.2 15.16-32.2L15.16-32.2Q12.67-32.2 11.05-31.45 9.42-30.69 8.64-29.39 7.86-28.1 7.86-26.44L7.86-26.44Q7.86-24.95 8.72-23.79 9.57-22.63 11.4-21.7 13.23-20.78 16.14-19.95L16.14-19.95Q20.17-18.82 22.75-17.33 25.34-15.84 26.57-13.82 27.81-11.79 27.81-9.03L27.81-9.03Q27.81-6.15 26.27-4 24.73-1.86 21.95-0.68 19.17 0.49 15.41 0.49L15.41 0.49Q12.94 0.49 10.56-0.2 8.18-0.88 6.24-2.25 4.3-3.61 3.14-5.63 1.98-7.64 1.98-10.3L1.98-10.3 6.71-10.3Q6.71-8.47 7.42-7.15 8.13-5.83 9.35-4.98 10.57-4.13 12.13-3.72 13.7-3.32 15.41-3.32L15.41-3.32Q17.87-3.32 19.57-4.02 21.26-4.71 22.16-5.98 23.05-7.25 23.05-8.98Z" opacity="1" transform="matrix(1,0,0,1,0,0)" fill="white" class="wordmark-text-0" id="SvgjsPath1105"></path></svg></g></svg></g></svg></g></svg></g></svg></g><defs><mask></mask></defs></svg><rect width="174.82459893048124" height="247.2" fill="black" stroke="none" visibility="hidden"></rect></g></mask><linearGradient x1="0" x2="1" y1="0.5" y2="0.5" id="0cab18a5-c43b-4a80-a096-ce1aad06e2f7"><stop stop-color="#f00b51" offset="0"></stop><stop stop-color="#730062" offset="1"></stop></linearGradient><rect width="174.82459893048124" height="247.2" fill="url(#0cab18a5-c43b-4a80-a096-ce1aad06e2f7)" mask="url(#e06317c9-54db-4570-8662-48877b9ef678)" data-fill-palette-color="primary"></rect></svg><rect width="174.82459893048124" height="247.2" fill="none" stroke="none" visibility="hidden"></rect></g></svg></g></svg>